<svg width="413" height="413" viewBox="0 0 413 413" fill="none" xmlns="http://www.w3.org/2000/svg">
<g clip-path="url(#clip0_686_380)">
<path d="M305.4 389.7C289 389.7 272.6 383.3 260.2 370.9L161.4 271.7C158.2 268.5 153 268.5 149.8 271.7L133 288.5C129.8 291.7 125 291.7 121.8 288.5C118.6 285.3 118.6 280.5 121.8 277.3L138.6 260.5C148.2 250.9 163 250.9 172.6 260.5L271.4 359.7C290.6 378.9 320.2 378.9 339.4 359.7L367.8 331.3C371 328.1 371 322.9 367.8 319.7L355 306.9C351.8 303.7 351.8 298.9 355 295.7C358.2 292.5 363 292.5 366.2 295.7L379 308.5C388.6 318.1 388.6 332.9 379 342.5L350.6 370.9C338.2 383.3 321.8 389.7 305.4 389.7Z" fill="#9B9FAA"/>
<path d="M117.4 338.9L57 399.3C50.6 405.7 40.6 405.7 34.2 399.3L14.2 379.3C7.80002 372.9 7.80002 362.9 14.2 356.5L75.4 295.7C81.4 289.7 89.4 286.5 97.8 286.5L124.6 286.1L126.6 314.1C127 323.3 123.8 332.5 117.4 338.9Z" fill="#D6913C"/>
<path d="M45.8 412.1C39.8 412.1 33.4 409.7 28.6 404.9L8.60002 384.9C3.80002 380.1 1.40002 374.1 1.40002 367.7C1.40002 361.3 3.80002 355.3 8.60002 350.5L69.8 289.7C77.4 282.1 87 278.1 97.8 278.1L124.6 277.7C128.6 277.7 132.2 280.9 132.6 285.3L134.6 313.3C135 325.3 131 336.5 123 344.5L62.6 404.9C57.8 409.7 51.8 412.1 45.8 412.1ZM117 294.1L97.8 294.5C91.4 294.5 85.4 296.9 81 301.3L19.8 362.1C18.2 363.7 17.4 365.7 17.4 367.7C17.4 369.7 18.2 371.7 19.8 373.3L39.8 393.3C43 396.5 48.2 396.5 51.4 393.3L111.8 332.9C116.6 328.1 119 321.3 118.6 314.1L117 294.1Z" fill="#A46210"/>
<path fill-rule="evenodd" clip-rule="evenodd" d="M31.9054 364.373C33.5435 362.725 36.0943 361.347 37.8991 363.141C38.7262 363.963 39.0671 365.237 38.3635 365.945C37.7287 366.583 36.3369 366.538 35.2833 367.598C33.0922 369.803 34.4733 372.916 36.8086 375.237C39.2083 377.623 42.2375 378.693 44.0944 376.825C45.7828 375.126 45.3502 374.16 46.0525 373.453C47.1239 372.376 48.4029 373.38 48.8495 373.824C50.7394 375.702 49.1374 378.629 47.65 380.125C43.9041 383.894 38.2283 382.469 33.8979 378.164C29.3117 373.605 28.3251 367.975 31.9054 364.373V364.373ZM53.1043 370.861C53.8087 372.062 54.2452 373.066 53.3582 373.958C52.5889 374.732 51.5019 374.722 50.653 373.879C50.1432 373.372 49.791 372.92 48.9298 371.363L42.6004 359.853C41.4096 357.698 40.3848 355.842 41.7391 354.48C43.1283 353.082 44.989 354.097 47.1505 355.275L58.6988 361.535C60.2618 362.386 60.7149 362.735 61.2253 363.242C62.0748 364.087 62.0903 365.173 61.3206 365.948C60.434 366.84 59.4288 366.408 58.2218 365.712L56.5287 364.697L52.0786 369.174L53.1043 370.861V370.861ZM52.5416 362.338L49.6971 365.2L45.6109 358.227L45.6444 358.193L52.5416 362.338ZM53.0335 343.795L49.7055 347.143C49.0041 347.849 48.9678 349.118 50.072 350.215L61.7709 361.844C62.9802 363.046 64.1651 363.086 64.9502 362.296C65.7362 361.506 65.6888 360.321 64.4795 359.119L61.3159 355.974L63.3734 353.904C65.9489 351.313 65.2033 347.73 62.2542 344.798C58.8348 341.399 55.1254 341.691 53.0335 343.795V343.795ZM54.118 348.82L55.5738 347.355C56.6451 346.277 58.085 346.271 59.4449 347.623C60.5054 348.677 60.867 350.309 59.7133 351.47L58.2575 352.934L54.118 348.82ZM77.6919 346.124L75.9979 345.11L71.5483 349.586L72.574 351.273C73.2775 352.476 73.7154 353.478 72.8283 354.37C72.0586 355.145 70.9711 355.135 70.1222 354.292C69.6124 353.785 69.2611 353.332 68.3999 351.775L62.0705 340.265C60.8788 338.111 59.8526 336.257 61.2092 334.892C62.5965 333.496 64.4577 334.51 66.6206 335.687L78.1689 341.947C79.7306 342.8 80.1817 343.15 80.6922 343.658C81.5417 344.502 81.5595 345.586 80.7893 346.361C79.9037 347.252 78.8989 346.821 77.6919 346.124ZM72.0112 342.751L69.1663 345.613L65.0796 338.64L65.1126 338.607L72.0112 342.751ZM88.1644 332.785C89.0433 332.92 89.6473 333.118 90.2209 333.688C90.7089 334.173 91.4612 335.625 90.4243 336.668C89.7225 337.374 89.1553 337.31 88.2866 337.12L79.6297 335.17L79.5962 335.204L83.9496 339.531C85.1589 340.733 85.2059 341.918 84.4198 342.709C83.6338 343.5 82.4494 343.459 81.2401 342.257L69.5411 330.628C68.437 329.531 68.4733 328.262 69.1751 327.556L72.4375 324.274C74.8454 321.851 78.286 322.126 81.1104 324.933C83.3394 327.149 83.8819 329.83 82.579 331.949L88.1644 332.785V332.785ZM73.7147 329.359L75.5036 327.559C76.2734 326.784 77.5076 326.775 78.5279 327.789C79.482 328.738 79.7244 329.98 78.8373 330.872L77.0484 332.672L73.7147 329.359ZM82.7182 313.253C79.1886 316.804 79.9648 322.223 84.7624 326.992C89.5612 331.762 94.9845 332.504 98.5141 328.954C102.044 325.403 101.269 319.984 96.4698 315.214C91.6722 310.445 86.2477 309.702 82.7182 313.253ZM85.903 316.418C87.9935 314.315 91.1607 315.758 93.5598 318.143C95.9595 320.528 97.421 323.686 95.3304 325.789C93.239 327.893 90.0729 326.451 87.6726 324.066C85.273 321.68 83.8115 318.522 85.903 316.418ZM91.9474 308.043C90.7369 306.84 90.6911 305.656 91.4772 304.865C92.2632 304.074 93.4483 304.112 94.6588 305.315L104.893 315.488L107.803 312.561C108.655 311.703 109.751 311.789 110.749 312.781C111.703 313.729 111.841 314.869 110.988 315.727L106.722 320.018C106.02 320.725 104.75 320.768 103.646 319.671L91.9474 308.043V308.043Z" fill="black"/>
<path fill-rule="evenodd" clip-rule="evenodd" d="M73.6194 120.862C75.0341 122.711 79.1022 127.211 81.116 128.989C81.116 128.989 91.0902 121.078 91.1552 121.12C89.9824 120.237 86.1041 117.645 84.3222 112.523L73.6194 120.862ZM132.406 91.057L213.763 31.3262C212.561 30.643 201.565 25.0829 198.68 23.8715L108.073 94.3072L132.406 91.057Z" fill="#8B288B"/>
<path fill-rule="evenodd" clip-rule="evenodd" d="M116.531 177.271L243.25 70.6781C241.998 69.4977 233.155 61.6463 232.015 60.7102L124.087 153.38L116.531 177.271Z" fill="#00ACEC"/>
<path fill-rule="evenodd" clip-rule="evenodd" d="M284.76 339.924C289.26 345.238 297.103 346.089 302.636 341.865L367.665 292.225C374.855 286.735 389.012 259.45 394.67 252.374V252.374C397.533 248.794 394.442 250.287 390.616 252.795L287.591 320.337C280.97 324.677 279.641 333.879 284.76 339.924V339.924Z" fill="#8B288B"/>
<path fill-rule="evenodd" clip-rule="evenodd" d="M158.669 209.361L281.532 106.966C281.532 106.966 273.961 99.0784 273 98.182L148 199L158.669 209.361Z" fill="#9FC54D"/>
<path fill-rule="evenodd" clip-rule="evenodd" d="M302.77 125.684L187.788 239.275C188.907 240.722 196.739 248.236 197.872 249.32L310.79 135.01C310.79 135.01 303.528 126.482 302.77 125.684Z" fill="#F2CA30"/>
<path fill-rule="evenodd" clip-rule="evenodd" d="M229.805 251.69L328.17 148.771C330.804 151.822 340.666 164.595 340.666 164.595L222.312 276.472L229.805 251.69Z" fill="#E0922F"/>
<path fill-rule="evenodd" clip-rule="evenodd" d="M257.237 308.035L375.536 202.023C374.128 199.185 369.41 191.259 366.712 187.23L245.406 296.595L257.237 308.035V308.035Z" fill="#CC2229"/>
<path d="M305.8 348.5C295.4 348.5 285.4 344.5 277.4 336.9L73.4001 133.3C65.8001 125.7 61.8 115.7 61.8 104.9C61.8 94.1 65.8001 84.1 73.4001 76.5L138.6 11.7C154.2 -3.9 179.4 -3.9 195 11.7L399 215.3C414.6 230.9 414.6 256.1 399 271.7L333.8 336.9C326.2 344.9 315.8 348.5 305.8 348.5ZM166.6 16.1C160.6 16.1 154.2 18.5 149.8 23.3L84.6 88.1C80.2 92.5 77.8001 98.5 77.8001 104.9C77.8001 111.3 80.2 117.3 84.6 121.7L288.6 325.3C297.8 334.5 313 334.5 322.6 325.3L387.8 260.1C397 250.9 397 235.7 387.8 226.1L183.8 22.5C179 18.1 173 16.1 166.6 16.1Z" fill="black"/>
</g>
<defs>
<clipPath id="clip0_686_380">
<rect width="412.1" height="412.1" fill="white"/>
</clipPath>
</defs>
</svg>
