<?xml version="1.0" encoding="iso-8859-1"?>
<!-- Generator: Adobe Illustrator 19.0.0, SVG Export Plug-In . SVG Version: 6.00 Build 0)  -->
<svg version="1.1" id="Layer_1" xmlns="http://www.w3.org/2000/svg" xmlns:xlink="http://www.w3.org/1999/xlink" x="0px" y="0px"
	 viewBox="0 0 398 398" style="enable-background:new 0 0 398 398;" xml:space="preserve">
<g>
	<rect x="33.5" y="280" style="fill:#EFEFEF;" width="331" height="110"/>
	<polygon style="fill:#EB7830;" points="33.911,280 129.178,225.002 160.938,280 	"/>
	<polygon style="fill:#EB7830;" points="160.931,280 129.183,225.002 176.808,197.501 224.45,280 	"/>
	<polygon style="fill:#EB7830;" points="224.441,280 176.812,197.501 224.448,170.002 279.449,265.259 253.913,280 	"/>
	<polygon style="fill:#EB7830;" points="224.441,170.001 272.078,142.502 327.079,237.759 279.442,265.258 	"/>
	<polygon style="fill:#3E81C8;" points="143.502,89.479 171.001,41.841 266.258,96.841 238.759,144.479 	"/>
	<polygon style="fill:#3E81C8;" points="116.002,137.107 143.502,89.472 238.756,144.471 223.817,170.366 198.709,184.857 	"/>
	<polygon style="fill:#3E81C8;" points="88.503,184.738 116.002,137.102 198.708,184.859 143.71,216.618 	"/>
	<polygon style="fill:#3E81C8;" points="88.501,184.742 143.711,216.607 33.292,280.37 	"/>
	<polygon style="fill:#F5C525;" points="33.5,173 95.276,173 33.5,279.996 	"/>
	<polygon style="fill:#F5C525;" points="33.5,173 33.5,118 127.024,118 95.28,173 	"/>
	<polygon style="fill:#F5C525;" points="33.5,118 33.5,63 143.5,63 143.5,89.474 127.029,118 	"/>
	<rect x="33.5" y="8" style="fill:#F5C525;" width="110" height="55"/>
	<g>
		<path style="fill:#231F20;" d="M364.5,272h-80.73l47.31-27.31c1.83-1.06,3.17-2.81,3.72-4.86s0.27-4.23-0.8-6.07l-55-95.26
			c-2.2-3.83-7.1-5.14-10.92-2.93l-22.41,12.94c15.16-26.25,27.52-47.67,27.52-47.67c2.21-3.82,0.9-8.72-2.93-10.92l-95.26-55
			c-1.84-1.07-4.02-1.35-6.07-0.8c-2.05,0.54-3.8,1.88-4.86,3.72L151.5,59.62V8c0-4.42-3.58-8-8-8h-110c-4.42,0-8,3.58-8,8v382
			c0,4.42,3.58,8,8,8h331c4.42,0,8-3.58,8-8V280C372.5,275.58,368.92,272,364.5,272z M269.15,153.43l47,81.4l-33.78,19.5l-23.5-40.7
			l-23.5-40.7L269.15,153.43z M127.71,216.61l-72.56,41.9l36.28-62.84L127.71,216.61z M99.43,181.81l19.5-33.78l63.78,36.83
			l-39,22.52L99.43,181.81z M126.25,235.93L147.08,272H63.77L126.25,235.93z M140.11,227.93l33.77-19.5l23.5,40.7L210.59,272h-45.04
			L140.11,227.93z M187.74,200.43l33.78-19.5l23.5,40.7l23.5,40.7L251.77,272h-22.71L187.74,200.43z M173.93,52.77l81.4,47
			l-19.5,33.78l-81.4-47L173.93,52.77z M146.43,100.4l81.4,47l-9.87,17.11l-19.25,11.11l-31.08-17.94l-40.7-23.5L146.43,100.4z
			 M41.5,16h94v39h-94V16z M41.5,71h94v16.33L122.41,110H41.5V71z M41.5,126h71.67l-22.51,39H41.5V126z M41.5,181h39.92L41.5,250.14
			V181z M356.5,382h-315v-94h315V382z"/>
		<path style="fill:#231F20;" d="M87.83,302c-18.2,0-33,14.8-33,33s14.8,33,33,33s33-14.8,33-33S106.03,302,87.83,302z M87.83,352
			c-9.37,0-17-7.63-17-17s7.63-17,17-17s17,7.63,17,17S97.2,352,87.83,352z"/>
		<path style="fill:#231F20;" d="M191.5,300.5h-34c-4.42,0-8,3.58-8,8v53c0,4.42,3.58,8,8,8s8-3.58,8-8v-16.83h26c4.42,0,8-3.59,8-8
			c0,0,0-27.92,0-28.17C199.5,304.08,195.92,300.5,191.5,300.5z M183.5,328.67h-18V316.5h18V328.67z"/>
		<path style="fill:#231F20;" d="M323.5,308.5v53c0,4.42-3.58,8-8,8c-2.89,0-5.42-1.54-6.83-3.84l-17.51-28.69v24.53
			c0,4.42-3.58,8-8,8c-4.41,0-8-3.58-8-8v-53c0-4.42,3.59-8,8-8c2.9,0,5.41,1.54,6.83,3.83l17.51,28.7V308.5c0-4.42,3.58-8,8-8
			S323.5,304.08,323.5,308.5z"/>
		<path style="fill:#231F20;" d="M262.39,358.88l-18.33-53l-0.01,0.01c-0.77-2.24-2.52-4.12-4.94-4.95
			c-4.17-1.45-8.73,0.77-10.17,4.94l-18.34,53c-1.44,4.18,0.77,8.74,4.95,10.18c0.86,0.3,1.75,0.44,2.61,0.44
			c3.32,0,6.42-2.08,7.56-5.38l1.23-3.55h19.09l1.23,3.55c1.15,3.3,4.24,5.38,7.56,5.38c0.87,0,1.75-0.14,2.62-0.44
			C261.62,367.62,263.84,363.06,262.39,358.88z M232.49,344.57l4.01-11.6l4.01,11.6H232.49z"/>
	</g>
</g>
<g>
</g>
<g>
</g>
<g>
</g>
<g>
</g>
<g>
</g>
<g>
</g>
<g>
</g>
<g>
</g>
<g>
</g>
<g>
</g>
<g>
</g>
<g>
</g>
<g>
</g>
<g>
</g>
<g>
</g>
</svg>
